# xmcd
#
# Track frame offsets: 
#        300
#        28803
#        61172
#        84065
#        120660
#        137842
#        159314
#        185368
#        204732
#        245670
#        279145
#
# Disc length: 4076 seconds
#
# Revision: 0
# Processed by: cddbd v1.5.2PL0 Copyright (c) Steve Scherf et al.
# Submitted via: ExactAudioCopy v1.0b1
#
DISCID=900fe80b
DTITLE=Gov't Mule - By A Thread
DYEAR=2009
DGENRE=Jam Bands
TTITLE0=Broke Down On The Brazos
TTITLE1=Steppin' Lightly
TTITLE2=Railroad Boy
TTITLE3=Monday Mourning Meltdown
TTITLE4=Gordon James
TTITLE5=Any Open Window
TTITLE6=Frozen Fear
TTITLE7=Forevermore
TTITLE8=Inside Outside Woman Blues #3
TTITLE9=Scenes From A Troubled Mind
TTITLE10=World Wake Up
EXTD=
EXTT0=
EXTT1=
EXTT2=
EXTT3=
EXTT4=
EXTT5=
EXTT6=
EXTT7=
EXTT8=
EXTT9=
EXTT10=
PLAYORDER=
